<mxfile host="drawio-plugin" modified="2025-02-07T11:04:13.534Z" agent="Mozilla/5.0 (Macintosh; Intel Mac OS X 10_15_7) AppleWebKit/537.36 (KHTML, like Gecko) Chrome/122.0.0.0 Safari/537.36" etag="cCxJHgeVuVS1cxOKKT4b" version="22.1.22" type="embed">
  <diagram id="YJ7jH1qTQpB0JOndrD0A" name="Page-1">
    <mxGraphModel dx="640" dy="502" grid="1" gridSize="10" guides="1" tooltips="1" connect="1" arrows="1" fold="1" page="1" pageScale="1" pageWidth="827" pageHeight="1169" math="0" shadow="0">
      <root>
        <mxCell id="0" />
        <mxCell id="1" parent="0" />
        <mxCell id="K9JfgEnNH1YhfQE25ud2-1" value="&amp;nbsp;BROKER" style="rounded=0;whiteSpace=wrap;html=1;align=left;verticalAlign=bottom;fontSize=16;" parent="1" vertex="1">
          <mxGeometry x="80" y="150" width="560" height="260" as="geometry" />
        </mxCell>
        <mxCell id="K9JfgEnNH1YhfQE25ud2-2" value="direct-producer" style="rounded=1;whiteSpace=wrap;html=1;fontSize=14;align=center;" parent="1" vertex="1">
          <mxGeometry x="230" y="40" width="120" height="60" as="geometry" />
        </mxCell>
        <mxCell id="K9JfgEnNH1YhfQE25ud2-3" value="topic-producer" style="rounded=1;whiteSpace=wrap;html=1;fontSize=14;align=center;" parent="1" vertex="1">
          <mxGeometry x="414" y="40" width="120" height="60" as="geometry" />
        </mxCell>
        <mxCell id="K9JfgEnNH1YhfQE25ud2-4" value="&lt;font color=&quot;#4d4d4d&quot;&gt;EXCHANGE&lt;/font&gt;" style="rounded=1;whiteSpace=wrap;html=1;fontSize=14;align=left;fillColor=#9AC7BF;" parent="1" vertex="1">
          <mxGeometry x="110" y="170" width="500" height="70" as="geometry" />
        </mxCell>
        <mxCell id="K9JfgEnNH1YhfQE25ud2-5" value="direct" style="rounded=1;whiteSpace=wrap;html=1;fontSize=14;align=center;" parent="1" vertex="1">
          <mxGeometry x="240" y="190" width="90" height="40" as="geometry" />
        </mxCell>
        <mxCell id="K9JfgEnNH1YhfQE25ud2-6" value="topic" style="rounded=1;whiteSpace=wrap;html=1;fontSize=14;align=center;" parent="1" vertex="1">
          <mxGeometry x="430" y="190" width="90" height="40" as="geometry" />
        </mxCell>
        <mxCell id="K9JfgEnNH1YhfQE25ud2-7" style="edgeStyle=orthogonalEdgeStyle;rounded=0;orthogonalLoop=1;jettySize=auto;html=1;entryX=0.569;entryY=-0.071;entryDx=0;entryDy=0;entryPerimeter=0;fontSize=14;" parent="1" source="K9JfgEnNH1YhfQE25ud2-2" target="K9JfgEnNH1YhfQE25ud2-5" edge="1">
          <mxGeometry relative="1" as="geometry">
            <Array as="points">
              <mxPoint x="291" y="155" />
            </Array>
          </mxGeometry>
        </mxCell>
        <mxCell id="K9JfgEnNH1YhfQE25ud2-8" style="edgeStyle=orthogonalEdgeStyle;rounded=0;orthogonalLoop=1;jettySize=auto;html=1;entryX=0.5;entryY=0;entryDx=0;entryDy=0;fontSize=14;" parent="1" source="K9JfgEnNH1YhfQE25ud2-3" target="K9JfgEnNH1YhfQE25ud2-6" edge="1">
          <mxGeometry relative="1" as="geometry" />
        </mxCell>
        <mxCell id="K9JfgEnNH1YhfQE25ud2-9" value="&lt;font color=&quot;#4d4d4d&quot;&gt;QUEUES&lt;/font&gt;" style="rounded=1;whiteSpace=wrap;html=1;fontSize=14;align=left;fillColor=#9AC7BF;" parent="1" vertex="1">
          <mxGeometry x="110" y="304" width="500" height="70" as="geometry" />
        </mxCell>
        <mxCell id="K9JfgEnNH1YhfQE25ud2-11" value="hello-world" style="rounded=1;whiteSpace=wrap;html=1;fontSize=14;align=center;" parent="1" vertex="1">
          <mxGeometry x="200" y="319" width="90" height="40" as="geometry" />
        </mxCell>
        <mxCell id="K9JfgEnNH1YhfQE25ud2-12" value="queue-a" style="rounded=1;whiteSpace=wrap;html=1;fontSize=14;align=center;" parent="1" vertex="1">
          <mxGeometry x="300" y="319" width="90" height="40" as="geometry" />
        </mxCell>
        <mxCell id="K9JfgEnNH1YhfQE25ud2-13" value="queue-b" style="rounded=1;whiteSpace=wrap;html=1;fontSize=14;align=center;" parent="1" vertex="1">
          <mxGeometry x="400" y="319" width="90" height="40" as="geometry" />
        </mxCell>
        <mxCell id="K9JfgEnNH1YhfQE25ud2-14" value="queue-c" style="rounded=1;whiteSpace=wrap;html=1;fontSize=14;align=center;" parent="1" vertex="1">
          <mxGeometry x="500" y="319" width="90" height="40" as="geometry" />
        </mxCell>
        <mxCell id="K9JfgEnNH1YhfQE25ud2-16" style="edgeStyle=orthogonalEdgeStyle;rounded=0;orthogonalLoop=1;jettySize=auto;html=1;fontSize=14;" parent="1" source="K9JfgEnNH1YhfQE25ud2-15" target="K9JfgEnNH1YhfQE25ud2-11" edge="1">
          <mxGeometry relative="1" as="geometry" />
        </mxCell>
        <mxCell id="K9JfgEnNH1YhfQE25ud2-17" style="edgeStyle=orthogonalEdgeStyle;rounded=0;orthogonalLoop=1;jettySize=auto;html=1;fontSize=14;" parent="1" source="K9JfgEnNH1YhfQE25ud2-15" target="K9JfgEnNH1YhfQE25ud2-12" edge="1">
          <mxGeometry relative="1" as="geometry">
            <Array as="points">
              <mxPoint x="345" y="430" />
              <mxPoint x="345" y="430" />
            </Array>
          </mxGeometry>
        </mxCell>
        <mxCell id="K9JfgEnNH1YhfQE25ud2-18" style="edgeStyle=orthogonalEdgeStyle;rounded=0;orthogonalLoop=1;jettySize=auto;html=1;fontSize=14;" parent="1" source="K9JfgEnNH1YhfQE25ud2-15" target="K9JfgEnNH1YhfQE25ud2-13" edge="1">
          <mxGeometry relative="1" as="geometry">
            <Array as="points">
              <mxPoint x="420" y="380" />
              <mxPoint x="420" y="380" />
            </Array>
          </mxGeometry>
        </mxCell>
        <mxCell id="K9JfgEnNH1YhfQE25ud2-19" style="edgeStyle=orthogonalEdgeStyle;rounded=0;orthogonalLoop=1;jettySize=auto;html=1;fontSize=14;" parent="1" source="K9JfgEnNH1YhfQE25ud2-15" target="K9JfgEnNH1YhfQE25ud2-14" edge="1">
          <mxGeometry relative="1" as="geometry" />
        </mxCell>
        <mxCell id="K9JfgEnNH1YhfQE25ud2-15" value="consumer" style="rounded=1;whiteSpace=wrap;html=1;fontSize=14;align=center;" parent="1" vertex="1">
          <mxGeometry x="320" y="450" width="120" height="60" as="geometry" />
        </mxCell>
        <mxCell id="K9JfgEnNH1YhfQE25ud2-22" value="routing keys" style="text;html=1;align=center;verticalAlign=middle;resizable=0;points=[];autosize=1;fontSize=14;" parent="1" vertex="1">
          <mxGeometry x="110" y="260" width="90" height="20" as="geometry" />
        </mxCell>
        <mxCell id="K9JfgEnNH1YhfQE25ud2-20" style="edgeStyle=orthogonalEdgeStyle;rounded=0;orthogonalLoop=1;jettySize=auto;html=1;fontSize=14;" parent="1" source="K9JfgEnNH1YhfQE25ud2-5" target="K9JfgEnNH1YhfQE25ud2-11" edge="1">
          <mxGeometry relative="1" as="geometry">
            <Array as="points">
              <mxPoint x="285" y="275" />
              <mxPoint x="245" y="275" />
            </Array>
          </mxGeometry>
        </mxCell>
        <mxCell id="K9JfgEnNH1YhfQE25ud2-21" value="hello-world" style="edgeLabel;html=1;align=center;verticalAlign=middle;resizable=0;points=[];fontSize=14;" parent="K9JfgEnNH1YhfQE25ud2-20" vertex="1" connectable="0">
          <mxGeometry x="-0.5597" y="-1" relative="1" as="geometry">
            <mxPoint as="offset" />
          </mxGeometry>
        </mxCell>
        <mxCell id="K9JfgEnNH1YhfQE25ud2-23" style="edgeStyle=orthogonalEdgeStyle;rounded=0;orthogonalLoop=1;jettySize=auto;html=1;fontSize=14;" parent="1" source="K9JfgEnNH1YhfQE25ud2-6" target="K9JfgEnNH1YhfQE25ud2-12" edge="1">
          <mxGeometry relative="1" as="geometry">
            <Array as="points">
              <mxPoint x="475" y="260" />
              <mxPoint x="345" y="260" />
            </Array>
          </mxGeometry>
        </mxCell>
        <mxCell id="K9JfgEnNH1YhfQE25ud2-29" value="a" style="edgeLabel;html=1;align=center;verticalAlign=middle;resizable=0;points=[];fontSize=14;" parent="K9JfgEnNH1YhfQE25ud2-23" vertex="1" connectable="0">
          <mxGeometry x="0.6694" relative="1" as="geometry">
            <mxPoint as="offset" />
          </mxGeometry>
        </mxCell>
        <mxCell id="K9JfgEnNH1YhfQE25ud2-24" style="edgeStyle=orthogonalEdgeStyle;rounded=0;orthogonalLoop=1;jettySize=auto;html=1;fontSize=14;" parent="1" source="K9JfgEnNH1YhfQE25ud2-6" target="K9JfgEnNH1YhfQE25ud2-13" edge="1">
          <mxGeometry relative="1" as="geometry">
            <Array as="points">
              <mxPoint x="475" y="260" />
              <mxPoint x="445" y="260" />
            </Array>
          </mxGeometry>
        </mxCell>
        <mxCell id="K9JfgEnNH1YhfQE25ud2-27" value="b" style="edgeLabel;html=1;align=center;verticalAlign=middle;resizable=0;points=[];fontSize=14;" parent="K9JfgEnNH1YhfQE25ud2-24" vertex="1" connectable="0">
          <mxGeometry x="0.3311" relative="1" as="geometry">
            <mxPoint as="offset" />
          </mxGeometry>
        </mxCell>
        <mxCell id="K9JfgEnNH1YhfQE25ud2-25" style="edgeStyle=orthogonalEdgeStyle;rounded=0;orthogonalLoop=1;jettySize=auto;html=1;fontSize=14;" parent="1" source="K9JfgEnNH1YhfQE25ud2-6" target="K9JfgEnNH1YhfQE25ud2-14" edge="1">
          <mxGeometry relative="1" as="geometry">
            <Array as="points">
              <mxPoint x="475" y="260" />
              <mxPoint x="545" y="260" />
            </Array>
          </mxGeometry>
        </mxCell>
        <mxCell id="K9JfgEnNH1YhfQE25ud2-28" value="c" style="edgeLabel;html=1;align=center;verticalAlign=middle;resizable=0;points=[];fontSize=14;" parent="K9JfgEnNH1YhfQE25ud2-25" vertex="1" connectable="0">
          <mxGeometry x="0.5245" relative="1" as="geometry">
            <mxPoint as="offset" />
          </mxGeometry>
        </mxCell>
        <mxCell id="K9JfgEnNH1YhfQE25ud2-30" value="&amp;nbsp;BROKER" style="rounded=0;whiteSpace=wrap;html=1;align=left;verticalAlign=bottom;fontSize=16;" parent="1" vertex="1">
          <mxGeometry x="990" y="170" width="430" height="260" as="geometry" />
        </mxCell>
        <mxCell id="K9JfgEnNH1YhfQE25ud2-32" value="logs-producer" style="rounded=1;whiteSpace=wrap;html=1;fontSize=14;align=center;" parent="1" vertex="1">
          <mxGeometry x="1194" y="60" width="120" height="60" as="geometry" />
        </mxCell>
        <mxCell id="K9JfgEnNH1YhfQE25ud2-33" value="&lt;font color=&quot;#4d4d4d&quot;&gt;EXCHANGE&lt;/font&gt;" style="rounded=1;whiteSpace=wrap;html=1;fontSize=14;align=left;fillColor=#9AC7BF;" parent="1" vertex="1">
          <mxGeometry x="1010" y="190" width="380" height="70" as="geometry" />
        </mxCell>
        <mxCell id="K9JfgEnNH1YhfQE25ud2-35" value="topic" style="rounded=1;whiteSpace=wrap;html=1;fontSize=14;align=center;" parent="1" vertex="1">
          <mxGeometry x="1210" y="210" width="90" height="40" as="geometry" />
        </mxCell>
        <mxCell id="K9JfgEnNH1YhfQE25ud2-37" style="edgeStyle=orthogonalEdgeStyle;rounded=0;orthogonalLoop=1;jettySize=auto;html=1;entryX=0.5;entryY=0;entryDx=0;entryDy=0;fontSize=14;" parent="1" source="K9JfgEnNH1YhfQE25ud2-32" target="K9JfgEnNH1YhfQE25ud2-35" edge="1">
          <mxGeometry relative="1" as="geometry" />
        </mxCell>
        <mxCell id="K9JfgEnNH1YhfQE25ud2-38" value="&lt;font color=&quot;#4d4d4d&quot;&gt;QUEUES&lt;/font&gt;" style="rounded=1;whiteSpace=wrap;html=1;fontSize=14;align=left;fillColor=#9AC7BF;" parent="1" vertex="1">
          <mxGeometry x="1010" y="324" width="380" height="70" as="geometry" />
        </mxCell>
        <mxCell id="K9JfgEnNH1YhfQE25ud2-40" value="queue-data-lake" style="rounded=1;whiteSpace=wrap;html=1;fontSize=14;align=center;" parent="1" vertex="1">
          <mxGeometry x="1130" y="339" width="110" height="40" as="geometry" />
        </mxCell>
        <mxCell id="K9JfgEnNH1YhfQE25ud2-41" value="queue-data-clean" style="rounded=1;whiteSpace=wrap;html=1;fontSize=14;align=center;" parent="1" vertex="1">
          <mxGeometry x="1260" y="339" width="120" height="40" as="geometry" />
        </mxCell>
        <mxCell id="K9JfgEnNH1YhfQE25ud2-44" style="edgeStyle=orthogonalEdgeStyle;rounded=0;orthogonalLoop=1;jettySize=auto;html=1;fontSize=14;" parent="1" source="K9JfgEnNH1YhfQE25ud2-47" target="K9JfgEnNH1YhfQE25ud2-40" edge="1">
          <mxGeometry relative="1" as="geometry">
            <Array as="points">
              <mxPoint x="1170" y="410" />
              <mxPoint x="1170" y="410" />
            </Array>
          </mxGeometry>
        </mxCell>
        <mxCell id="K9JfgEnNH1YhfQE25ud2-61" style="edgeStyle=orthogonalEdgeStyle;rounded=0;orthogonalLoop=1;jettySize=auto;html=1;entryX=-0.008;entryY=0.594;entryDx=0;entryDy=0;entryPerimeter=0;fontSize=14;" parent="1" source="K9JfgEnNH1YhfQE25ud2-47" target="K9JfgEnNH1YhfQE25ud2-60" edge="1">
          <mxGeometry relative="1" as="geometry" />
        </mxCell>
        <mxCell id="K9JfgEnNH1YhfQE25ud2-63" value="raw-log" style="edgeLabel;html=1;align=center;verticalAlign=middle;resizable=0;points=[];fontSize=14;" parent="K9JfgEnNH1YhfQE25ud2-61" vertex="1" connectable="0">
          <mxGeometry x="-0.5629" y="-1" relative="1" as="geometry">
            <mxPoint as="offset" />
          </mxGeometry>
        </mxCell>
        <mxCell id="K9JfgEnNH1YhfQE25ud2-47" value="data-lake-consumer" style="rounded=1;whiteSpace=wrap;html=1;fontSize=14;align=center;" parent="1" vertex="1">
          <mxGeometry x="1101" y="470" width="140" height="40" as="geometry" />
        </mxCell>
        <mxCell id="K9JfgEnNH1YhfQE25ud2-48" value="routing keys" style="text;html=1;align=center;verticalAlign=middle;resizable=0;points=[];autosize=1;fontSize=14;" parent="1" vertex="1">
          <mxGeometry x="1010" y="280" width="90" height="20" as="geometry" />
        </mxCell>
        <mxCell id="K9JfgEnNH1YhfQE25ud2-51" style="edgeStyle=orthogonalEdgeStyle;rounded=0;orthogonalLoop=1;jettySize=auto;html=1;fontSize=14;" parent="1" source="K9JfgEnNH1YhfQE25ud2-35" target="K9JfgEnNH1YhfQE25ud2-40" edge="1">
          <mxGeometry relative="1" as="geometry">
            <Array as="points">
              <mxPoint x="1255" y="280" />
              <mxPoint x="1170" y="280" />
            </Array>
          </mxGeometry>
        </mxCell>
        <mxCell id="K9JfgEnNH1YhfQE25ud2-52" value="logs" style="edgeLabel;html=1;align=center;verticalAlign=middle;resizable=0;points=[];fontSize=14;" parent="K9JfgEnNH1YhfQE25ud2-51" vertex="1" connectable="0">
          <mxGeometry x="0.6694" relative="1" as="geometry">
            <mxPoint y="-12" as="offset" />
          </mxGeometry>
        </mxCell>
        <mxCell id="K9JfgEnNH1YhfQE25ud2-53" style="edgeStyle=orthogonalEdgeStyle;rounded=0;orthogonalLoop=1;jettySize=auto;html=1;fontSize=14;" parent="1" source="K9JfgEnNH1YhfQE25ud2-35" target="K9JfgEnNH1YhfQE25ud2-41" edge="1">
          <mxGeometry relative="1" as="geometry">
            <Array as="points">
              <mxPoint x="1255" y="280" />
              <mxPoint x="1315" y="280" />
            </Array>
          </mxGeometry>
        </mxCell>
        <mxCell id="K9JfgEnNH1YhfQE25ud2-54" value="logs" style="edgeLabel;html=1;align=center;verticalAlign=middle;resizable=0;points=[];fontSize=14;" parent="K9JfgEnNH1YhfQE25ud2-53" vertex="1" connectable="0">
          <mxGeometry x="0.3311" relative="1" as="geometry">
            <mxPoint y="11" as="offset" />
          </mxGeometry>
        </mxCell>
        <mxCell id="K9JfgEnNH1YhfQE25ud2-59" value="" style="edgeStyle=orthogonalEdgeStyle;rounded=0;orthogonalLoop=1;jettySize=auto;html=1;fontSize=14;" parent="1" source="K9JfgEnNH1YhfQE25ud2-57" target="K9JfgEnNH1YhfQE25ud2-41" edge="1">
          <mxGeometry relative="1" as="geometry">
            <Array as="points">
              <mxPoint x="1320" y="450" />
              <mxPoint x="1320" y="450" />
            </Array>
          </mxGeometry>
        </mxCell>
        <mxCell id="K9JfgEnNH1YhfQE25ud2-62" style="edgeStyle=orthogonalEdgeStyle;rounded=0;orthogonalLoop=1;jettySize=auto;html=1;entryX=1.026;entryY=0.663;entryDx=0;entryDy=0;entryPerimeter=0;fontSize=14;" parent="1" source="K9JfgEnNH1YhfQE25ud2-57" target="K9JfgEnNH1YhfQE25ud2-60" edge="1">
          <mxGeometry relative="1" as="geometry" />
        </mxCell>
        <mxCell id="K9JfgEnNH1YhfQE25ud2-64" value="clean-log" style="edgeLabel;html=1;align=center;verticalAlign=middle;resizable=0;points=[];fontSize=14;" parent="K9JfgEnNH1YhfQE25ud2-62" vertex="1" connectable="0">
          <mxGeometry x="-0.4833" y="-2" relative="1" as="geometry">
            <mxPoint y="-3" as="offset" />
          </mxGeometry>
        </mxCell>
        <mxCell id="K9JfgEnNH1YhfQE25ud2-57" value="data-clean-consumer" style="rounded=1;whiteSpace=wrap;html=1;fontSize=14;align=center;" parent="1" vertex="1">
          <mxGeometry x="1260" y="470" width="140" height="40" as="geometry" />
        </mxCell>
        <mxCell id="K9JfgEnNH1YhfQE25ud2-60" value="" style="aspect=fixed;html=1;points=[];align=center;image;fontSize=12;image=img/lib/mscae/Azure_Database_for_MySQL_servers.svg;fillColor=#9AC7BF;" parent="1" vertex="1">
          <mxGeometry x="1230" y="570" width="38" height="50" as="geometry" />
        </mxCell>
      </root>
    </mxGraphModel>
  </diagram>
</mxfile>
